<svg width="24" height="24" viewBox="0 0 24 24" fill="none" xmlns="http://www.w3.org/2000/svg">
<path d="M17.0001 8.7998H7.0001C6.7793 8.7998 6.6001 8.9786 6.6001 9.1998C6.6001 9.421 6.7793 9.5998 7.0001 9.5998H17.0001C17.2209 9.5998 17.4001 9.421 17.4001 9.1998C17.4001 8.9786 17.2209 8.7998 17.0001 8.7998Z" fill="white"/>
<path d="M7.0001 6.4001H11.0001C11.2209 6.4001 11.4001 6.2213 11.4001 6.0001C11.4001 5.7789 11.2209 5.6001 11.0001 5.6001H7.0001C6.7793 5.6001 6.6001 5.7789 6.6001 6.0001C6.6001 6.2213 6.7793 6.4001 7.0001 6.4001Z" fill="white"/>
<path d="M17.0001 12H7.0001C6.7793 12 6.6001 12.1788 6.6001 12.4C6.6001 12.6212 6.7793 12.8 7.0001 12.8H17.0001C17.2209 12.8 17.4001 12.6212 17.4001 12.4C17.4001 12.1788 17.2209 12 17.0001 12Z" fill="white"/>
<path d="M17.0001 15.2002H7.0001C6.7793 15.2002 6.6001 15.379 6.6001 15.6002C6.6001 15.8214 6.7793 16.0002 7.0001 16.0002H17.0001C17.2209 16.0002 17.4001 15.8214 17.4001 15.6002C17.4001 15.379 17.2209 15.2002 17.0001 15.2002Z" fill="white"/>
<path d="M17.0001 18.3999H7.0001C6.7793 18.3999 6.6001 18.5787 6.6001 18.7999C6.6001 19.0211 6.7793 19.1999 7.0001 19.1999H17.0001C17.2209 19.1999 17.4001 19.0211 17.4001 18.7999C17.4001 18.5787 17.2209 18.3999 17.0001 18.3999Z" fill="white"/>
<path d="M15.5657 0H2.6001V24H21.4001V5.8344L15.5657 0ZM15.8001 1.3656L20.0345 5.6H15.8001V1.3656ZM3.4001 23.2V0.8H15.0001V6.4H20.6001V23.2H3.4001Z" fill="white"/>
</svg>
